<svg width="1276" height="1560" viewBox="0 0 1276 1560" fill="none" xmlns="http://www.w3.org/2000/svg">
<path d="M70.8386 379.697C84.4165 456.628 33.1222 450.405 5.77778 437.678V1382.34C5.77779 1566.94 -7.22223 1486.94 5.77778 1538.94C13.6676 1570.5 56.6949 1417.69 45.38 1382.34C34.0651 1346.98 36.8939 1280.52 86.3966 1266.38C135.899 1252.23 142.971 1219.71 168.43 1178.7C193.888 1137.69 258.949 1057.08 417.358 1119.3C575.767 1181.53 680.43 1124.96 755.391 1068.39C903.899 956.328 1155.78 1068.94 1225.78 1164.94C1262.51 1215.32 1162.3 1472.93 1225.78 1496.94C1257.49 1508.94 1285.78 1729.51 1285.78 1484.94V364.141C1284.83 374.512 1277.86 392.142 1257.49 379.697C1197.52 349.152 1222.13 255.722 1241.93 212.826C1252.78 171.815 1256.36 75.6522 1183.94 19.0858C1098.78 -47.4404 848.165 81.3093 702.778 81.3091C543.938 81.3089 466.861 44.5408 372.098 10.6009C277.336 -23.3389 202.374 34.6417 172.673 81.309C142.971 127.976 141.557 146.36 96.2972 167.573C7.1922 200.099 53.8662 283.534 70.8386 379.697Z" fill="#FEF3E4"/>
</svg>
