<svg width="1280" height="1542" viewBox="0 0 1280 1542" fill="none" xmlns="http://www.w3.org/2000/svg">
<path d="M57 246C57 324.119 22.3444 306.727 -5 294L9.77778 1364.34C9.77779 1548.94 -3.22223 1468.94 9.77778 1520.94C17.6676 1552.5 60.6949 1399.69 49.38 1364.34C38.0651 1328.98 40.8939 1262.52 90.3966 1248.38C139.899 1234.23 146.971 1201.71 172.43 1160.7C197.888 1119.69 262.949 1039.08 421.358 1101.3C579.767 1163.53 684.43 1106.96 759.391 1050.39C907.899 938.328 1159.78 1050.94 1229.78 1146.94C1266.51 1197.32 1166.3 1454.93 1229.78 1478.94C1261.49 1490.94 1289.78 1711.51 1289.78 1466.94V268C1288.83 278.371 1266.3 306.444 1245.93 294C1185.96 263.454 1245.93 232 1245.93 194.826C1256.78 153.815 1255.42 84.5664 1183 28C1097.83 -38.5262 852.165 63.3093 706.778 63.3091C547.938 63.3089 465.762 47.9399 371 14C276.238 -19.9399 206.374 16.6417 176.673 63.309C146.971 109.976 176.673 149.573 100.297 149.573C71 182 57 167.881 57 246Z" fill="#FEF3E4"/>
</svg>
