<svg aria-hidden="true" style="position: absolute; width: 0; height: 0; overflow: hidden;" version="1.1" xmlns="http://www.w3.org/2000/svg" xmlns:xlink="http://www.w3.org/1999/xlink">
<defs>
<symbol id="bg-down-desktop" viewBox="0 0 27 32">
<path fill="#fef3e4" style="fill: var(--color1, #fef3e4)" d="M1.391 8.118c0.29 1.644-0.806 1.511-1.391 1.239v20.193c0 3.946-0.278 2.236 0 3.348 0.169 0.675 1.088-2.592 0.847-3.348s-0.181-2.177 0.877-2.479 1.209-0.998 1.754-1.874c0.544-0.877 1.935-2.6 5.321-1.27s5.623 0.121 7.226-1.088c3.175-2.396 8.559 0.012 10.055 2.064 0.785 1.077-1.357 6.583 0 7.097 0.678 0.257 1.283 4.971 1.283-0.256v-23.958c-0.020 0.222-0.169 0.599-0.605 0.333-1.282-0.653-0.756-2.65-0.333-3.567 0.232-0.877 0.308-2.932-1.239-4.141-1.821-1.422-7.178 1.33-10.286 1.33-3.395 0-5.043-0.786-7.069-1.511s-3.628 0.514-4.263 1.511c-0.635 0.998-0.665 1.391-1.633 1.844-1.905 0.695-0.907 2.479-0.544 4.534z"></path>
</symbol>
<symbol id="bg-down-mobile" viewBox="0 0 8 32">
<path fill="#fef3e4" style="fill: var(--color1, #fef3e4)" d="M0.391 2.515c0.090 0.51-0.25 0.468-0.432 0.384v6.258c0 1.223-0.086 22.461 0 22.806 0.052 0.209 0.507-0.868 0.432-1.102s-0.225-1.091 0.103-1.184c0.329-0.094 0.375-0.309 0.544-0.581s0.601-0.806 1.652-0.393c1.051 0.412 1.746 0.037 2.243-0.337 0.986-0.742 2.657 0.004 3.122 0.64 0.244 0.334-0.421 1.983 0 2.143 0.21 0.079 0.398 1.54 0.398-0.080v-28.656c-0.006 0.069-0.053 0.186-0.188 0.103-0.398-0.202-0.235-0.821-0.103-1.105 0.072-0.272 0.096-0.909-0.385-1.283-0.565-0.441-2.228 0.412-3.193 0.412-1.054 0-1.566-0.244-2.195-0.468s-1.126 0.159-1.324 0.468c-0.197 0.309-0.207 0.431-0.507 0.571-0.591 0.215-0.282 0.768-0.169 1.405z"></path>
</symbol>
<symbol id="bg-up-desktop" viewBox="0 0 40 32">
<path fill="#fef3e4" style="fill: var(--color1, #fef3e4)" d="M1.591 30.425c0 0.71-0.978 1.589-1.591 1.56v-31.985h39.537v10.425c0.015 6.224 0 18.224 0 19.351 0 0.707-1.078 0.409-1.953-0.728s0.743-4.767 0.875-5.817-0.263-3.236-4.331-5.904c-4.068-2.668-10.017-0.306-13.167 1.268s-5.827-0.612-10.114-1.924c-4.287-1.312-5.862 0.787-6.43 1.924s-0.56 4.198-1.785 4.636c-1.225 0.437-1.706 1.618-1.4 3.324s0.358 2.951 0.358 3.869z"></path>
</symbol>
<symbol id="bg-up-mobile" viewBox="0 0 22 32">
<path fill="#fef3e4" style="fill: var(--color1, #fef3e4)" d="M0.894 31.089c0 0.399-0.55 0.893-0.894 0.877v-31.965h22.209v5.86c0.009 3.498 0 24.231 0 24.864 0 0.397-0.606 0.23-1.097-0.409s0.418-2.679 0.491-3.269c0.074-0.59-0.147-1.819-2.433-3.319s-5.627-0.172-7.396 0.713c-1.769 0.885-3.273-0.344-5.681-1.082s-3.293 0.443-3.612 1.082c-0.319 0.639-0.315 2.36-1.002 2.606s-0.958 0.91-0.786 1.868 0.201 1.659 0.201 2.175z"></path>
</symbol>
<symbol id="bg-up-tablet" viewBox="0 0 40 32">
<path fill="#fef3e4" style="fill: var(--color1, #fef3e4)" d="M1.54 30.439c0 0.711-0.979 1.59-1.591 1.561v-31.999h39.556v10.43c0.015 6.227 0 18.232 0 19.36 0 0.707-1.079 0.409-1.954-0.728s0.744-4.769 0.875-5.819-0.263-3.238-4.333-5.907c-4.070-2.669-10.022-0.306-13.173 1.269s-5.83-0.613-10.118-1.925c-4.289-1.313-5.864 0.788-6.433 1.925s-0.56 4.2-1.786 4.638c-1.225 0.438-1.707 1.619-1.4 3.325s0.358 2.952 0.358 3.871z"></path>
</symbol>
<symbol id="bg-down-tablet" viewBox="0 0 20 32">
<path fill="#fef3e4" style="fill: var(--color1, #fef3e4)" d="M0.955 5.799c0.207 1.175-0.576 1.080-0.993 0.886v14.428c0 2.819-0.199 10.032 0 10.826 0.12 0.482 1.166-2 0.993-2.54s-0.518-2.514 0.238-2.73c0.756-0.216 0.864-0.713 1.253-1.339s1.382-1.857 3.801-0.907 4.017 0.086 5.161-0.778c2.268-1.712 6.113 0.008 7.182 1.475 0.561 0.769-0.969 4.573 0 4.94 0.484 0.183 0.916 3.552 0.916-0.183v-24.314c-0.014 0.158-0.121 0.428-0.432 0.238-0.916-0.466-0.54-1.893-0.238-2.549 0.166-0.626 0.22-2.095-0.885-2.959-1.3-1.016-5.127 0.95-7.347 0.95-2.425 0-3.602-0.562-5.049-1.080s-2.591 0.367-3.045 1.080c-0.454 0.713-0.475 0.994-1.166 1.317-1.361 0.497-0.648 1.771-0.389 3.24z"></path>
</symbol>
</defs>
</svg>
