<svg aria-hidden="true" style="position: absolute; width: 0; height: 0; overflow: hidden;" version="1.1" xmlns="http://www.w3.org/2000/svg" xmlns:xlink="http://www.w3.org/1999/xlink">
<defs>
<symbol id="icon-chat" viewBox="0 0 47 32">
<path   d="M35.987 13.842c0-8.361-8.814-13.842-17.614-13.842-8.835 0-17.613 5.506-17.613 13.842 0 3.154 1.381 6.237 3.889 8.684 0.096 0.094 0.133 0.236 0.096 0.371-0.788 2.886-2.654 5.493-3.419 6.48-0.238 0.307-0.277 0.713-0.102 1.060 0.171 0.339 0.51 0.547 0.888 0.547 0.009 0 0.017-0 0.026-0 3.746-0.093 8.089-1.151 10.773-3.79 0.094-0.092 0.228-0.129 0.36-0.097 1.649 0.391 3.366 0.589 5.103 0.589 8.832-0 17.614-5.504 17.614-13.842zM13.58 25.79c-0.583-0.138-1.185 0.028-1.61 0.446-2.684 2.639-7.067 3.239-9.142 3.372 0.948-1.308 2.489-3.711 3.211-6.359 0.165-0.605-0.009-1.25-0.453-1.684-2.279-2.223-3.484-4.894-3.484-7.723 0-6.893 7.3-12.501 16.272-12.501s16.272 5.608 16.272 12.501c0 6.893-7.3 12.501-16.272 12.501-1.633 0-3.245-0.186-4.793-0.553z"></path>
<path  d="M40.3 24.986c3.91-1.976 6.245-5.344 6.245-9.010 0-5.18-4.683-9.607-11.135-10.525-0.366-0.052-0.706 0.203-0.759 0.569s0.203 0.706 0.569 0.758c5.784 0.823 9.983 4.692 9.983 9.198 0 3.149-2.059 6.070-5.509 7.813-0.671 0.339-1.030 1.088-0.874 1.823 0.327 1.537 1.023 2.96 1.58 3.924-3.961-0.659-5.462-2.56-5.937-3.382-0.293-0.508-0.841-0.823-1.432-0.823-0.002 0-0.004 0-0.005 0l-0.049 0c-0.744 0-1.488-0.052-2.213-0.153-0.366-0.052-0.706 0.204-0.758 0.571s0.204 0.706 0.571 0.758c0.786 0.11 1.594 0.166 2.4 0.166l0.056-0c0.112 0 0.215 0.058 0.269 0.152 1.816 3.148 5.992 3.952 7.703 4.151 0.378 0.044 0.738-0.129 0.94-0.452s0.199-0.721-0.007-1.041c-0.515-0.803-1.435-2.409-1.806-4.15-0.030-0.139 0.039-0.282 0.167-0.346z"></path>
<path  d="M7.937 11.443c-1.282 0-2.324 1.043-2.324 2.324s1.043 2.324 2.324 2.324 2.324-1.043 2.324-2.324c0-1.282-1.043-2.324-2.324-2.324zM7.937 14.751c-0.542 0-0.983-0.441-0.983-0.983s0.441-0.983 0.983-0.983c0.542 0 0.983 0.441 0.983 0.983s-0.441 0.983-0.983 0.983z"></path>
<path  d="M14.568 11.443c-1.282 0-2.324 1.043-2.324 2.324s1.043 2.324 2.324 2.324 2.325-1.043 2.325-2.324c0-1.282-1.043-2.324-2.325-2.324zM14.568 14.751c-0.542 0-0.983-0.441-0.983-0.983s0.441-0.983 0.983-0.983c0.542 0 0.983 0.441 0.983 0.983s-0.441 0.983-0.983 0.983z"></path>
<path  d="M21.199 11.443c-1.282 0-2.324 1.043-2.324 2.324s1.043 2.324 2.324 2.324 2.325-1.043 2.325-2.324c0-1.282-1.043-2.324-2.325-2.324zM21.199 14.751c-0.542 0-0.983-0.441-0.983-0.983s0.441-0.983 0.983-0.983c0.542 0 0.983 0.441 0.983 0.983s-0.441 0.983-0.983 0.983z"></path>
<path  d="M27.83 11.443c-1.282 0-2.325 1.043-2.325 2.324s1.043 2.324 2.325 2.324 2.324-1.043 2.324-2.324c0-1.282-1.043-2.324-2.324-2.324zM27.83 14.751c-0.542 0-0.983-0.441-0.983-0.983s0.441-0.983 0.983-0.983c0.542 0 0.983 0.441 0.983 0.983s-0.441 0.983-0.983 0.983z"></path>
</symbol>
<symbol id="icon-chef-hat" viewBox="0 0 35 32">
<path d="M25.046 8.507c-0.13 0-0.254-0.052-0.346-0.143s-0.143-0.216-0.143-0.346c-0.038-1.875-0.809-3.66-2.149-4.973s-3.14-2.048-5.015-2.048c-1.875 0-3.676 0.735-5.015 2.048s-2.111 3.098-2.149 4.973c0 0.13-0.052 0.254-0.143 0.346s-0.216 0.143-0.346 0.143c-0.13 0-0.254-0.052-0.346-0.143s-0.143-0.216-0.143-0.346c0.033-2.138 0.906-4.177 2.429-5.677s3.576-2.341 5.714-2.341c2.138 0 4.19 0.841 5.714 2.341s2.396 3.539 2.429 5.677c0 0.13-0.051 0.254-0.143 0.346s-0.216 0.143-0.346 0.143z"></path>
<path d="M26.474 19.581c-0.13 0.001-0.255-0.050-0.347-0.141s-0.145-0.215-0.145-0.345c-0.001-0.13 0.050-0.255 0.141-0.347s0.215-0.145 0.345-0.145c1.864-0.011 3.649-0.753 4.971-2.066s2.077-3.093 2.101-4.957c-0.019-1.882-0.783-3.68-2.125-4.999s-3.153-2.052-5.035-2.038c-0.723-0.001-1.441 0.105-2.132 0.316-0.123 0.036-0.256 0.022-0.369-0.039s-0.198-0.164-0.235-0.287c-0.038-0.123-0.025-0.256 0.034-0.37s0.161-0.2 0.284-0.239c0.784-0.239 1.599-0.36 2.419-0.359 2.142-0.014 4.201 0.823 5.727 2.325s2.393 3.549 2.412 5.691c-0.025 2.121-0.881 4.147-2.385 5.644s-3.534 2.343-5.655 2.358h-0.006z"></path>
<path d="M8.308 19.581h-0.006c-2.121-0.015-4.151-0.862-5.655-2.358s-2.36-3.523-2.385-5.644c0.019-2.141 0.886-4.188 2.412-5.691s3.585-2.339 5.727-2.325c0.82-0.001 1.635 0.12 2.419 0.359 0.062 0.018 0.12 0.048 0.171 0.089s0.092 0.091 0.123 0.148c0.031 0.057 0.050 0.12 0.056 0.184s-0 0.13-0.019 0.192c-0.019 0.062-0.050 0.12-0.092 0.17s-0.092 0.091-0.15 0.121c-0.058 0.030-0.12 0.048-0.185 0.054s-0.13-0.002-0.191-0.022c-0.691-0.211-1.41-0.317-2.132-0.316-1.882-0.014-3.693 0.719-5.035 2.038s-2.106 3.117-2.125 4.999c0.024 1.864 0.779 3.643 2.101 4.957s3.108 2.055 4.971 2.066c0.064 0 0.128 0.013 0.187 0.038s0.113 0.061 0.158 0.107c0.045 0.046 0.081 0.1 0.105 0.159s0.037 0.123 0.036 0.188c-0 0.064-0.013 0.128-0.038 0.187s-0.061 0.113-0.107 0.158c-0.046 0.045-0.1 0.081-0.159 0.105s-0.123 0.037-0.188 0.036z"></path>
<path d="M26.474 31.756h-18.166c-0.13 0-0.254-0.052-0.346-0.143s-0.143-0.216-0.143-0.346v-12.174c0-0.13 0.052-0.254 0.143-0.346s0.216-0.143 0.346-0.143 0.254 0.052 0.346 0.143c0.092 0.092 0.143 0.216 0.143 0.346v11.684h17.187v-11.684c0-0.13 0.052-0.254 0.143-0.346s0.216-0.143 0.346-0.143 0.254 0.052 0.346 0.143c0.092 0.092 0.143 0.216 0.143 0.346v12.174c0 0.13-0.051 0.254-0.143 0.346s-0.216 0.143-0.346 0.143z"></path>
<path d="M29.88 27.014h-18.166c-0.13 0-0.254-0.051-0.346-0.143s-0.143-0.216-0.143-0.346 0.052-0.254 0.143-0.346c0.092-0.092 0.216-0.143 0.346-0.143h18.166c0.13 0 0.254 0.052 0.346 0.143s0.143 0.216 0.143 0.346-0.051 0.254-0.143 0.346c-0.092 0.092-0.216 0.143-0.346 0.143z"></path>
</symbol>
<symbol id="icon-clock" viewBox="0 0 32 32">
<path  d="M16 0c-8.822 0-16 7.178-16 16s7.178 16 16 16c8.822 0 16-7.178 16-16s-7.178-16-16-16zM16 30.933c-8.234 0-14.933-6.699-14.933-14.933s6.699-14.933 14.933-14.933c8.234 0 14.933 6.699 14.933 14.933s-6.699 14.933-14.933 14.933z"></path>
<path  d="M16 5.269c0.294 0 0.533-0.238 0.533-0.533v-0.533c0-0.295-0.239-0.533-0.533-0.533s-0.533 0.238-0.533 0.533v0.533c0 0.295 0.239 0.533 0.533 0.533z"></path>
<path  d="M16 26.602c-0.294 0-0.533 0.238-0.533 0.533v0.533c0 0.295 0.239 0.533 0.533 0.533s0.533-0.238 0.533-0.533v-0.533c0-0.295-0.239-0.533-0.533-0.533z"></path>
<path  d="M27.733 15.402h-0.533c-0.294 0-0.533 0.238-0.533 0.533s0.239 0.533 0.533 0.533h0.533c0.294 0 0.533-0.238 0.533-0.533s-0.239-0.533-0.533-0.533z"></path>
<path  d="M16.533 13.878v-5.409c0-0.295-0.239-0.533-0.533-0.533s-0.533 0.238-0.533 0.533v5.409c-0.746 0.194-1.33 0.778-1.524 1.524h-3.809c-0.294 0-0.533 0.238-0.533 0.533s0.239 0.533 0.533 0.533h3.809c0.238 0.917 1.067 1.6 2.058 1.6 1.177 0 2.133-0.957 2.133-2.133 0-0.992-0.683-1.819-1.6-2.058zM16 17.002c-0.588 0-1.067-0.478-1.067-1.067s0.478-1.067 1.067-1.067c0.588 0 1.067 0.478 1.067 1.067s-0.478 1.067-1.067 1.067z"></path>
<path  d="M16.533 13.878v-5.409c0-0.295-0.239-0.533-0.533-0.533s-0.533 0.238-0.533 0.533v5.409c-0.746 0.194-1.33 0.778-1.524 1.524h-3.809c-0.294 0-0.533 0.238-0.533 0.533s0.239 0.533 0.533 0.533h3.809c0.238 0.917 1.067 1.6 2.058 1.6 1.177 0 2.133-0.957 2.133-2.133 0-0.992-0.683-1.819-1.6-2.058zM16 17.002c-0.588 0-1.067-0.478-1.067-1.067s0.478-1.067 1.067-1.067c0.588 0 1.067 0.478 1.067 1.067s-0.478 1.067-1.067 1.067z"></path>
<path  d="M16.533 13.878v-5.409c0-0.295-0.239-0.533-0.533-0.533s-0.533 0.238-0.533 0.533v5.409c-0.746 0.194-1.33 0.778-1.524 1.524h-3.809c-0.294 0-0.533 0.238-0.533 0.533s0.239 0.533 0.533 0.533h3.809c0.238 0.917 1.067 1.6 2.058 1.6 1.177 0 2.133-0.957 2.133-2.133 0-0.992-0.683-1.819-1.6-2.058zM16 17.002c-0.588 0-1.067-0.478-1.067-1.067s0.478-1.067 1.067-1.067c0.588 0 1.067 0.478 1.067 1.067s-0.478 1.067-1.067 1.067z"></path>
<path  d="M4.8 15.402h-0.533c-0.294 0-0.533 0.238-0.533 0.533s0.239 0.533 0.533 0.533h0.533c0.294 0 0.533-0.238 0.533-0.533s-0.239-0.533-0.533-0.533z"></path>
<path  d="M23.919 7.262l-0.377 0.377c-0.209 0.209-0.209 0.546 0 0.754 0.104 0.104 0.241 0.156 0.377 0.156s0.273-0.052 0.377-0.156l0.377-0.377c0.209-0.209 0.209-0.546 0-0.754s-0.546-0.208-0.754 0z"></path>
<path  d="M7.703 23.478l-0.377 0.377c-0.209 0.209-0.209 0.546 0 0.754 0.104 0.104 0.241 0.156 0.377 0.156s0.273-0.052 0.377-0.156l0.377-0.377c0.209-0.209 0.209-0.546 0-0.754s-0.546-0.208-0.754 0z"></path>
<path  d="M24.297 23.478c-0.209-0.209-0.546-0.209-0.754 0s-0.209 0.546 0 0.754l0.377 0.377c0.104 0.104 0.241 0.156 0.377 0.156s0.273-0.052 0.377-0.156c0.209-0.209 0.209-0.546 0-0.754l-0.377-0.377z"></path>
<path  d="M8.081 7.261c-0.209-0.209-0.546-0.209-0.754 0s-0.209 0.546 0 0.754l0.377 0.377c0.104 0.104 0.241 0.156 0.377 0.156s0.273-0.052 0.377-0.156c0.209-0.209 0.209-0.546 0-0.754l-0.377-0.377z"></path>
</symbol>
<symbol id="icon-close" viewBox="0 0 32 32">
<path d="M30.355 32c0.422 0 0.843-0.16 1.163-0.483 0.643-0.643 0.643-1.685 0-2.328l-28.707-28.707c-0.643-0.643-1.685-0.643-2.328 0s-0.643 1.685 0 2.329l28.707 28.706c0.323 0.321 0.744 0.483 1.165 0.483z"></path>
<path d="M1.645 32c0.422 0 0.843-0.16 1.163-0.483l28.709-28.706c0.643-0.643 0.643-1.686 0-2.329s-1.685-0.643-2.329 0l-28.707 28.707c-0.643 0.643-0.643 1.685 0 2.328 0.323 0.321 0.744 0.483 1.163 0.483z"></path>
</symbol>
<symbol id="icon-facebook" viewBox="0 0 19 32">
<path d="M16.649 0.007l-4.15-0.007c-4.662 0-7.675 3.091-7.675 7.875v3.631h-4.172c-0.361 0-0.652 0.292-0.652 0.653v5.261c0 0.361 0.292 0.653 0.652 0.653h4.172v13.275c0 0.361 0.292 0.652 0.652 0.652h5.444c0.361 0 0.652-0.292 0.652-0.652v-13.275h4.878c0.361 0 0.652-0.292 0.652-0.653l0.002-5.261c0-0.173-0.069-0.339-0.191-0.461s-0.289-0.191-0.462-0.191h-4.88v-3.078c0-1.479 0.353-2.23 2.28-2.23l2.795-0.001c0.36 0 0.652-0.292 0.652-0.652v-4.885c0-0.36-0.292-0.652-0.652-0.652z"></path>
</symbol>
<symbol id="icon-instagram" viewBox="0 0 32 32">
<path d="M16.316 32c-0.106 0-0.212 0-0.319-0-2.508 0.006-4.826-0.058-7.080-0.195-2.066-0.126-3.953-0.84-5.455-2.065-1.45-1.182-2.44-2.781-2.942-4.75-0.438-1.715-0.461-3.398-0.483-5.026-0.016-1.168-0.033-2.553-0.036-3.96 0.003-1.414 0.020-2.798 0.036-3.966 0.022-1.628 0.045-3.311 0.483-5.026 0.503-1.97 1.493-3.568 2.942-4.75 1.503-1.225 3.389-1.939 5.456-2.065 2.254-0.137 4.572-0.201 7.086-0.195 2.509-0.005 4.826 0.058 7.080 0.195 2.067 0.126 3.953 0.84 5.455 2.065 1.45 1.182 2.44 2.78 2.942 4.75 0.438 1.715 0.461 3.398 0.483 5.026 0.016 1.168 0.033 2.553 0.036 3.96v0.006c-0.003 1.408-0.020 2.792-0.036 3.96-0.022 1.628-0.045 3.311-0.483 5.026-0.503 1.97-1.493 3.568-2.942 4.75-1.502 1.225-3.389 1.939-5.455 2.065-2.158 0.131-4.376 0.195-6.768 0.195v0zM15.997 29.499c2.468 0.006 4.733-0.056 6.934-0.19 1.562-0.095 2.917-0.602 4.027-1.507 1.026-0.837 1.733-1.991 2.1-3.431 0.364-1.428 0.385-2.96 0.406-4.442 0.016-1.16 0.032-2.535 0.036-3.929-0.004-1.394-0.020-2.769-0.036-3.929-0.020-1.482-0.041-3.015-0.406-4.443-0.367-1.44-1.074-2.594-2.1-3.431-1.11-0.905-2.465-1.412-4.027-1.507-2.201-0.134-4.467-0.196-6.929-0.19-2.467-0.006-4.733 0.056-6.934 0.19-1.563 0.095-2.917 0.602-4.027 1.507-1.026 0.837-1.732 1.991-2.1 3.431-0.364 1.428-0.385 2.96-0.406 4.443-0.016 1.161-0.032 2.537-0.036 3.932 0.003 1.389 0.020 2.765 0.036 3.926 0.020 1.482 0.041 3.015 0.406 4.442 0.367 1.44 1.074 2.594 2.1 3.431 1.11 0.905 2.465 1.412 4.027 1.507 2.201 0.134 4.467 0.197 6.928 0.19v0zM15.937 23.813c-4.308 0-7.813-3.505-7.813-7.813s3.505-7.813 7.813-7.813c4.308 0 7.813 3.505 7.813 7.813s-3.505 7.813-7.813 7.813v0zM15.937 10.687c-2.929 0-5.313 2.383-5.313 5.313s2.383 5.313 5.313 5.313c2.929 0 5.313-2.383 5.313-5.313s-2.383-5.313-5.313-5.313v0zM24.625 5.687c-1.035 0-1.875 0.839-1.875 1.875s0.84 1.875 1.875 1.875c1.036 0 1.875-0.839 1.875-1.875s-0.839-1.875-1.875-1.875z"></path>
</symbol>
<symbol id="icon-location" viewBox="0 0 23 32">
<path d="M11.733 1.193c6.47 0 11.733 5.264 11.733 11.733 0 2.56-0.809 4.993-2.341 7.034l-8.669 11.676c-0.022 0.028-0.055 0.039-0.079 0.064-0.433 0.464-1.058 0.347-1.367-0.064-2.496-3.331-7.072-9.552-8.832-11.899 0 0-0.001-0.002-0.001-0.003l-0.011-0.014c-1.418-1.992-2.167-4.341-2.167-6.794 0-6.47 5.264-11.733 11.733-11.733zM11.733 19.256c3.483 0 6.33-2.847 6.33-6.33s-2.847-6.33-6.33-6.33c-3.483 0-6.33 2.847-6.33 6.33s2.847 6.33 6.33 6.33z"></path>
</symbol>
<symbol id="icon-menu" viewBox="0 0 60 32">
<path d="M2 0h56c1.105 0 2 0.895 2 2s-0.895 2-2 2h-56c-1.105 0-2-0.895-2-2s0.895-2 2-2z"></path>
<path d="M2 14h56c1.105 0 2 0.895 2 2s-0.895 2-2 2h-56c-1.105 0-2-0.895-2-2s0.895-2 2-2z"></path>
<path d="M2 28h56c1.105 0 2 0.895 2 2s-0.895 2-2 2h-56c-1.105 0-2-0.895-2-2s0.895-2 2-2z"></path>
</symbol>
<symbol id="icon-people" viewBox="0 0 35 32">
<path   d="M11.847 0c-3.678 0-6.674 2.996-6.674 6.674s2.996 6.674 6.674 6.674c3.678 0 6.674-2.996 6.674-6.674s-2.996-6.674-6.674-6.674zM11.847 12.229c-3.071 0-5.562-2.498-5.562-5.562s2.498-5.562 5.562-5.562c3.071 0 5.562 2.498 5.562 5.562s-2.498 5.562-5.562 5.562z"></path>
<path   d="M25.516 2.771c-2.764 0-5.009 2.245-5.009 5.009s2.245 5.009 5.009 5.009c2.764 0 5.009-2.245 5.009-5.009s-2.245-5.009-5.009-5.009zM25.516 11.683c-2.15 0-3.897-1.747-3.897-3.897s1.747-3.897 3.897-3.897c2.15 0 3.897 1.747 3.897 3.897s-1.747 3.897-3.897 3.897z"></path>
<path   d="M34.476 20.131c-0.505-3.044-2.395-5.609-5.616-6.954 0 0-1.426 1.078-3.344 1.044-2.095-0.041-3.344-1.044-3.344-1.044s-1.556 0.58-2.811 1.788c-1.16-1.030-3.119-1.87-3.119-1.87s-1.795 1.365-4.402 1.344c-2.736-0.020-4.388-1.344-4.388-1.344s-5.916 2.034-7.165 8.933c0 0-1.338 3.658 1.761 9.124h19.606c0 0 1.392-2.423 1.638-3.897h9.752c2.395-3.63 1.433-7.124 1.433-7.124zM20.964 30.040h-18.227c-2.382-4.524-1.351-7.827-1.351-7.827 0.58-3.46 2.805-6.381 5.985-7.861 2.73 1.604 6.23 1.604 8.96 0 3.18 1.481 5.405 4.401 5.985 7.861-0.007 0 0.983 4.067-1.351 7.827zM32.394 26.143h-8.878c0.341-1.965-0.109-4.115-0.109-4.115-0.403-2.429-1.549-4.62-3.228-6.312 0.573-0.519 1.208-0.949 1.904-1.283 2.095 1.201 4.763 1.201 6.858 0 2.354 1.126 4.006 3.303 4.436 5.882 0 0 0.812 2.757-0.983 5.828z"></path>
</symbol>
<symbol id="icon-phone" viewBox="0 0 32 32">
<path d="M29.43 21.003c-1.959 0-3.882-0.306-5.705-0.909-0.893-0.305-1.991-0.025-2.536 0.535l-3.598 2.716c-4.172-2.227-6.743-4.797-8.939-8.938l2.636-3.504c0.685-0.684 0.931-1.683 0.636-2.62-0.605-1.832-0.912-3.755-0.912-5.715 0-1.416-1.152-2.568-2.567-2.568h-5.876c-1.416 0-2.568 1.152-2.568 2.568 0 16.228 13.202 29.43 29.43 29.43 1.416 0 2.568-1.152 2.568-2.568v-5.86c0-1.416-1.152-2.567-2.568-2.567z"></path>
</symbol>
<symbol id="icon-Star" viewBox="0 0 34 32">
<path d="M15.24 1.561c0.504-1.552 2.699-1.552 3.204 0l2.558 7.872c0.225 0.694 0.872 1.164 1.602 1.164h8.277c1.632 0 2.31 2.088 0.99 3.047l-6.696 4.865c-0.59 0.429-0.837 1.189-0.612 1.883l2.558 7.872c0.504 1.552-1.272 2.842-2.592 1.883l-6.696-4.865c-0.59-0.429-1.39-0.429-1.98 0l-6.696 4.865c-1.32 0.959-3.096-0.331-2.592-1.883l2.558-7.872c0.225-0.694-0.022-1.454-0.612-1.883l-6.696-4.865c-1.32-0.959-0.642-3.047 0.99-3.047h8.277c0.73 0 1.376-0.47 1.602-1.164l2.558-7.872z"></path>
</symbol>
<symbol id="icon-twitter" viewBox="0 0 40 32">
<path d="M40.421 3.788c-1.503 0.642-3.105 1.068-4.775 1.275 1.718-0.999 3.029-2.57 3.645-4.463-1.602 0.93-3.37 1.588-5.255 1.954-1.521-1.578-3.688-2.555-6.053-2.555-4.588 0-8.281 3.628-8.281 8.076 0 0.64 0.056 1.255 0.192 1.841-6.889-0.327-12.985-3.545-17.080-8.446-0.715 1.209-1.134 2.592-1.134 4.081 0 2.796 1.478 5.275 3.681 6.71-1.331-0.025-2.637-0.401-3.744-0.994 0 0.025 0 0.057 0 0.089 0 3.924 2.872 7.183 6.639 7.934-0.675 0.18-1.41 0.266-2.173 0.266-0.531 0-1.066-0.029-1.569-0.138 1.074 3.197 4.12 5.548 7.743 5.625-2.819 2.149-6.399 3.444-10.275 3.444-0.68 0-1.331-0.030-1.983-0.111 3.671 2.307 8.021 3.623 12.712 3.623 15.249 0 23.586-12.308 23.586-22.976 0-0.357-0.013-0.702-0.030-1.044 1.645-1.137 3.027-2.558 4.153-4.192z"></path>
</symbol>
</defs>
</svg>
